<svg width="201" height="75" viewBox="0 0 201 75" fill="none" xmlns="http://www.w3.org/2000/svg">
<g clip-path="url(#clip0_118_40543)">
<path d="M32.5693 50.9525H3.1333V65.25H32.5693V50.9525Z" fill="#F26D31"/>
<path d="M32.5693 32.4902H3.1333V46.7878H32.5693V32.4902Z" fill="#F26D31"/>
<path d="M66.6075 32.4902H37.1807V46.7878H66.6075V32.4902Z" fill="#F26D31"/>
<path d="M66.6075 50.9525H37.1807V65.25H66.6075V50.9525Z" fill="#F26D31"/>
<path d="M69.75 25.6761L67.3563 26.5685L66.1641 27.0148L64.9534 27.3866L62.5319 28.1396L61.4783 28.3999L60.8591 28.5579L60.092 28.7531C59.6854 28.8554 59.2787 28.9577 58.8721 29.0506L57.6429 29.3016C56.8203 29.4597 56.007 29.6456 55.1845 29.785C53.5486 30.0453 51.9128 30.3149 50.2584 30.4822C48.0588 30.7332 45.8592 30.9099 43.6596 30.9935C43.4563 31.0028 43.2622 31.0121 43.0589 31.0214C42.1716 31.0493 41.2936 31.0679 40.4156 31.0772H31.1181H31.1273C30.5266 31.0679 29.9351 31.0772 29.3344 31.0772C28.4564 31.0679 27.5784 31.0493 26.6911 31.0214C26.4878 31.0121 26.2937 31.0028 26.0904 30.9935C23.9 30.9099 21.6819 30.7332 19.4823 30.4822C17.8372 30.3149 16.2014 30.0453 14.5563 29.785C13.743 29.6456 12.9297 29.4597 12.1071 29.3016L10.8779 29.0506C10.4713 28.9577 10.0646 28.8554 9.65798 28.7531L8.88164 28.5579L8.44726 28.4464L7.21807 28.1396L4.79664 27.3866L3.58593 27.0148L2.3937 26.5685L0 25.6761L4.31605 24.5327L2.64324 20.2936L4.66725 21.4277L5.68388 22.0041L6.73748 22.5154L8.85392 23.5473L11.0258 24.4676C11.1552 24.5234 11.2846 24.5699 11.4047 24.6256C11.645 24.7279 11.8853 24.8301 12.1164 24.9231L12.3936 25.0254L13.2347 25.3321C13.974 25.6017 14.7134 25.8899 15.4712 26.1409C16.9869 26.6243 18.5027 27.1263 20.0461 27.5353C23.1237 28.372 26.2752 29.0692 29.4545 29.5805C29.6856 29.6177 29.9166 29.6456 30.1477 29.6828L13.1238 24.291L11.95 23.9191L11.2476 23.696L14.9999 19.9682L20.4897 14.5021L32.8371 27.6283C33.5672 27.0612 34.4637 26.7173 35.4619 26.7173C36.3491 26.7173 37.1624 26.9869 37.8556 27.4424L49.8056 14.9204L57.8 23.0546L58.5024 23.9377L58.4284 23.9656L56.8018 24.4769L41.0718 29.4318C43.9831 28.9391 46.8758 28.3069 49.7039 27.5353C51.2473 27.1263 52.7631 26.6243 54.2788 26.1409C55.0366 25.8899 55.776 25.6017 56.5153 25.3321L57.3471 25.0254L57.6244 24.9231C57.9941 24.7744 58.3545 24.6163 58.7242 24.4676L58.7612 24.449L60.8961 23.5473L63.0125 22.5154L64.0569 22.0041L65.0827 21.4277L67.1068 20.2936L65.434 24.5327L69.75 25.6761Z" fill="#F26D31"/>
<path d="M48.6504 13.8606L37.8556 25.0254C37.1624 24.5698 36.3491 24.3003 35.4619 24.3003C34.4638 24.3003 33.5673 24.6442 32.8371 25.2113L21.6357 13.3122L34.8704 0L39.0848 4.23907V2.09164H38.7059V1.17132H44.5931V2.09164H44.2049V9.38916L48.6504 13.8606Z" fill="#F26D31"/>
</g>
<path d="M93.438 54.422C93.438 54.982 93.396 55.514 93.312 56.018C93.256 56.522 93.102 57.04 92.85 57.572C92.626 58.076 92.304 58.622 91.884 59.21C91.464 59.798 90.918 60.47 90.246 61.226C89.434 62.122 88.482 62.92 87.39 63.62C86.298 64.32 85.08 64.67 83.736 64.67C82.896 64.67 82.056 64.53 81.216 64.25C80.404 63.97 79.676 63.55 79.032 62.99C78.416 62.43 77.912 61.73 77.52 60.89C77.128 60.05 76.932 59.07 76.932 57.95C76.932 56.158 77.268 54.282 77.94 52.322C78.612 50.334 79.55 48.206 80.754 45.938C81.538 44.454 82.266 43.152 82.938 42.032C83.61 40.884 84.268 39.932 84.912 39.176C85.556 38.392 86.2 37.804 86.844 37.412C87.488 37.02 88.174 36.824 88.902 36.824C89.462 36.824 89.938 36.936 90.33 37.16C90.75 37.356 90.96 37.762 90.96 38.378C90.96 38.574 90.918 38.756 90.834 38.924C90.75 39.064 90.624 39.134 90.456 39.134C90.232 39.134 90.064 39.078 89.952 38.966C89.868 38.826 89.602 38.756 89.154 38.756C88.398 38.756 87.656 39.106 86.928 39.806C86.2 40.506 85.514 41.318 84.87 42.242C84.254 43.138 83.708 44.034 83.232 44.93C82.784 45.826 82.462 46.484 82.266 46.904C81.93 47.604 81.552 48.43 81.132 49.382C80.74 50.334 80.362 51.314 79.998 52.322C79.634 53.33 79.326 54.31 79.074 55.262C78.822 56.186 78.696 56.956 78.696 57.572C78.696 58.356 78.822 59.056 79.074 59.672C79.354 60.26 79.718 60.764 80.166 61.184C80.614 61.604 81.132 61.926 81.72 62.15C82.336 62.346 82.98 62.444 83.652 62.444C84.576 62.444 85.514 62.22 86.466 61.772C87.446 61.324 88.314 60.736 89.07 60.008C89.854 59.28 90.484 58.44 90.96 57.488C91.464 56.536 91.716 55.57 91.716 54.59C91.716 53.61 91.464 52.798 90.96 52.154C90.456 51.51 89.896 51.188 89.28 51.188C88.888 51.188 88.608 51.258 88.44 51.398C88.3 51.51 88.16 51.664 88.02 51.86C87.824 52.168 87.642 52.42 87.474 52.616C87.306 52.812 87.012 52.98 86.592 53.12C85.92 53.344 85.388 53.512 84.996 53.624C84.632 53.708 84.366 53.778 84.198 53.834L83.862 53.918C83.694 53.918 83.456 53.806 83.148 53.582C82.868 53.33 82.728 53.134 82.728 52.994C82.728 52.49 83.022 52.014 83.61 51.566C84.226 51.09 84.912 50.67 85.668 50.306C86.424 49.914 87.152 49.606 87.852 49.382C88.552 49.158 88.986 49.046 89.154 49.046C89.994 49.046 90.68 49.214 91.212 49.55C91.772 49.886 92.206 50.32 92.514 50.852C92.85 51.384 93.088 51.972 93.228 52.616C93.368 53.232 93.438 53.834 93.438 54.422ZM98.8865 44.93C98.8865 44.986 98.7885 45.098 98.5925 45.266C98.3965 45.434 98.1585 45.616 97.8785 45.812C97.6265 45.98 97.3605 46.134 97.0805 46.274C96.8005 46.414 96.5765 46.484 96.4085 46.484C96.2965 46.484 96.1425 46.484 95.9465 46.484C95.7785 46.456 95.5965 46.4 95.4005 46.316C95.2325 46.232 95.0785 46.12 94.9385 45.98C94.7985 45.812 94.7285 45.602 94.7285 45.35C94.7285 44.958 94.8685 44.594 95.1485 44.258C95.4285 43.894 95.7925 43.712 96.2405 43.712C96.3245 43.712 96.5065 43.754 96.7865 43.838C97.0945 43.894 97.4025 43.978 97.7105 44.09C98.0185 44.202 98.2845 44.328 98.5085 44.468C98.7605 44.608 98.8865 44.762 98.8865 44.93ZM100.273 60.638C100.273 60.834 100.119 61.002 99.8105 61.142C99.5305 61.282 99.3205 61.352 99.1805 61.352C98.9005 61.352 98.6485 61.17 98.4245 60.806C98.2005 60.442 98.0045 60.022 97.8365 59.546C97.6685 59.07 97.5285 58.622 97.4165 58.202C97.3045 57.754 97.2205 57.446 97.1645 57.278C97.0805 56.998 96.9685 56.662 96.8285 56.27C96.6885 55.878 96.5485 55.5 96.4085 55.136C96.2965 54.772 96.1985 54.45 96.1145 54.17C96.0305 53.89 95.9885 53.736 95.9885 53.708C95.9885 53.316 96.0585 52.952 96.1985 52.616C96.3665 52.28 96.5625 52.112 96.7865 52.112C97.0385 52.112 97.3045 52.308 97.5845 52.7C97.8645 53.092 98.1305 53.596 98.3825 54.212C98.6625 54.8 98.9145 55.458 99.1385 56.186C99.3625 56.886 99.5585 57.558 99.7265 58.202C99.8945 58.818 100.021 59.364 100.105 59.84C100.217 60.288 100.273 60.554 100.273 60.638ZM116.664 34.136C116.692 34.192 116.706 34.29 116.706 34.43C116.706 34.57 116.706 34.724 116.706 34.892C116.706 35.088 116.636 35.186 116.496 35.186C116.44 35.186 116.37 35.172 116.286 35.144C116.202 35.116 116.132 35.088 116.076 35.06C115.572 34.836 114.956 34.556 114.228 34.22C113.528 33.856 112.73 33.674 111.834 33.674C110.826 33.674 110.014 34.052 109.398 34.808C108.782 35.564 108.306 36.446 107.97 37.454C107.662 38.434 107.452 39.4 107.34 40.352C107.256 41.304 107.214 41.99 107.214 42.41C107.214 42.718 107.256 43.208 107.34 43.88C107.452 44.524 107.592 45.196 107.76 45.896C107.928 46.596 108.124 47.24 108.348 47.828C108.572 48.388 108.796 48.738 109.02 48.878C109.188 48.878 109.482 48.864 109.902 48.836C110.35 48.808 110.714 48.794 110.994 48.794C111.47 48.794 111.918 48.836 112.338 48.92C112.758 49.004 113.192 49.046 113.64 49.046C113.752 49.046 113.92 49.046 114.144 49.046C114.368 49.046 114.592 49.06 114.816 49.088C115.068 49.116 115.278 49.172 115.446 49.256C115.614 49.312 115.698 49.396 115.698 49.508C115.698 49.648 115.6 49.774 115.404 49.886C115.208 49.998 114.984 50.096 114.732 50.18C114.48 50.236 114.228 50.278 113.976 50.306C113.724 50.334 113.528 50.348 113.388 50.348C113.248 50.348 113.066 50.348 112.842 50.348C112.618 50.32 112.366 50.292 112.086 50.264C111.834 50.236 111.582 50.222 111.33 50.222C111.106 50.194 110.91 50.18 110.742 50.18C110.294 50.18 110.014 50.236 109.902 50.348C109.818 50.432 109.776 50.614 109.776 50.894C109.776 51.314 109.958 51.888 110.322 52.616C110.714 53.316 111.134 54.072 111.582 54.884C112.03 55.696 112.436 56.536 112.8 57.404C113.192 58.272 113.388 59.07 113.388 59.798C113.388 59.938 113.346 60.204 113.262 60.596C113.206 60.96 113.108 61.338 112.968 61.73C112.856 62.122 112.688 62.472 112.464 62.78C112.24 63.088 111.988 63.242 111.708 63.242C111.484 63.242 111.274 63.186 111.078 63.074C110.91 62.934 110.826 62.71 110.826 62.402C110.826 61.954 110.938 61.534 111.162 61.142C111.414 60.75 111.54 60.33 111.54 59.882C111.54 59.658 111.428 59.28 111.204 58.748C111.008 58.216 110.756 57.628 110.448 56.984C110.14 56.312 109.804 55.612 109.44 54.884C109.076 54.156 108.726 53.498 108.39 52.91C108.082 52.294 107.816 51.79 107.592 51.398C107.368 51.006 107.242 50.796 107.214 50.768C106.654 50.964 106.08 51.16 105.492 51.356C104.904 51.552 104.372 51.846 103.896 52.238C103.7 52.434 103.518 52.532 103.35 52.532C103.07 52.532 102.804 52.42 102.552 52.196C102.328 51.972 102.216 51.72 102.216 51.44C102.216 51.132 102.3 50.894 102.468 50.726C102.664 50.53 102.846 50.39 103.014 50.306C103.266 50.166 103.658 50.012 104.19 49.844C104.722 49.676 105.254 49.536 105.786 49.424C105.982 49.368 106.164 49.326 106.332 49.298C106.5 49.242 106.584 49.144 106.584 49.004C106.5 48.724 106.374 48.36 106.206 47.912C106.066 47.436 105.912 46.876 105.744 46.232C105.604 45.588 105.478 44.874 105.366 44.09C105.254 43.278 105.198 42.41 105.198 41.486C105.198 40.478 105.31 39.414 105.534 38.294C105.786 37.174 106.164 36.152 106.668 35.228C107.2 34.276 107.858 33.506 108.642 32.918C109.426 32.302 110.364 31.994 111.456 31.994C111.96 31.994 112.52 32.05 113.136 32.162C113.752 32.246 114.312 32.386 114.816 32.582C115.348 32.75 115.782 32.974 116.118 33.254C116.482 33.506 116.664 33.8 116.664 34.136ZM130.466 45.266C130.102 45.686 129.584 46.106 128.912 46.526C128.24 46.918 127.568 47.282 126.896 47.618C126.224 47.954 125.636 48.248 125.132 48.5C124.628 48.724 124.376 48.878 124.376 48.962C124.376 49.046 124.432 49.298 124.544 49.718C124.656 50.138 124.782 50.642 124.922 51.23C125.09 51.79 125.258 52.378 125.426 52.994C125.594 53.61 125.734 54.156 125.846 54.632C125.902 54.912 125.972 55.276 126.056 55.724C126.14 56.172 126.21 56.62 126.266 57.068C126.35 57.516 126.42 57.922 126.476 58.286C126.532 58.622 126.56 58.804 126.56 58.832C126.56 59.252 126.49 59.686 126.35 60.134C126.21 60.582 125.986 60.806 125.678 60.806C125.51 60.806 125.356 60.736 125.216 60.596C125.076 60.456 124.95 60.302 124.838 60.134C124.726 59.938 124.642 59.756 124.586 59.588C124.53 59.42 124.502 59.294 124.502 59.21C124.502 59.154 124.502 59.07 124.502 58.958C124.53 58.846 124.544 58.72 124.544 58.58C124.544 58.048 124.46 57.278 124.292 56.27C124.236 55.962 124.124 55.486 123.956 54.842C123.788 54.198 123.62 53.54 123.452 52.868C123.256 52.084 123.032 51.23 122.78 50.306C122.668 49.914 122.598 49.718 122.57 49.718C122.374 49.718 122.038 49.844 121.562 50.096C121.114 50.32 120.596 50.614 120.008 50.978C119.42 51.314 118.804 51.692 118.16 52.112C117.516 52.504 116.914 52.882 116.354 53.246C115.794 53.582 115.318 53.876 114.926 54.128C114.506 54.352 114.254 54.464 114.17 54.464C113.806 54.464 113.512 54.338 113.288 54.086C113.064 53.834 112.952 53.554 112.952 53.246C112.952 53.078 113.19 52.84 113.666 52.532C114.114 52.196 114.688 51.832 115.388 51.44C116.06 51.048 116.802 50.642 117.614 50.222C118.398 49.802 119.126 49.424 119.798 49.088C120.498 48.752 121.072 48.472 121.52 48.248C121.996 48.024 122.234 47.912 122.234 47.912C121.982 46.624 121.772 45.476 121.604 44.468C121.464 43.6 121.324 42.802 121.184 42.074C121.072 41.346 121.016 40.954 121.016 40.898C121.016 40.534 121.086 40.268 121.226 40.1C121.394 39.904 121.576 39.806 121.772 39.806C122.08 39.806 122.276 40.016 122.36 40.436C122.668 41.948 122.948 43.292 123.2 44.468C123.48 45.644 123.746 46.596 123.998 47.324C124.25 47.268 124.684 47.114 125.3 46.862C125.916 46.582 126.56 46.288 127.232 45.98C127.904 45.672 128.506 45.406 129.038 45.182C129.598 44.93 129.92 44.804 130.004 44.804C130.172 44.804 130.27 44.86 130.298 44.972C130.354 45.084 130.41 45.182 130.466 45.266ZM149.506 54.422C149.506 54.982 149.464 55.514 149.38 56.018C149.324 56.522 149.17 57.04 148.918 57.572C148.694 58.076 148.372 58.622 147.952 59.21C147.532 59.798 146.986 60.47 146.314 61.226C145.502 62.122 144.55 62.92 143.458 63.62C142.366 64.32 141.148 64.67 139.804 64.67C138.964 64.67 138.124 64.53 137.284 64.25C136.472 63.97 135.744 63.55 135.1 62.99C134.484 62.43 133.98 61.73 133.588 60.89C133.196 60.05 133 59.07 133 57.95C133 56.158 133.336 54.282 134.008 52.322C134.68 50.334 135.618 48.206 136.822 45.938C137.606 44.454 138.334 43.152 139.006 42.032C139.678 40.884 140.336 39.932 140.98 39.176C141.624 38.392 142.268 37.804 142.912 37.412C143.556 37.02 144.242 36.824 144.97 36.824C145.53 36.824 146.006 36.936 146.398 37.16C146.818 37.356 147.028 37.762 147.028 38.378C147.028 38.574 146.986 38.756 146.902 38.924C146.818 39.064 146.692 39.134 146.524 39.134C146.3 39.134 146.132 39.078 146.02 38.966C145.936 38.826 145.67 38.756 145.222 38.756C144.466 38.756 143.724 39.106 142.996 39.806C142.268 40.506 141.582 41.318 140.938 42.242C140.322 43.138 139.776 44.034 139.3 44.93C138.852 45.826 138.53 46.484 138.334 46.904C137.998 47.604 137.62 48.43 137.2 49.382C136.808 50.334 136.43 51.314 136.066 52.322C135.702 53.33 135.394 54.31 135.142 55.262C134.89 56.186 134.764 56.956 134.764 57.572C134.764 58.356 134.89 59.056 135.142 59.672C135.422 60.26 135.786 60.764 136.234 61.184C136.682 61.604 137.2 61.926 137.788 62.15C138.404 62.346 139.048 62.444 139.72 62.444C140.644 62.444 141.582 62.22 142.534 61.772C143.514 61.324 144.382 60.736 145.138 60.008C145.922 59.28 146.552 58.44 147.028 57.488C147.532 56.536 147.784 55.57 147.784 54.59C147.784 53.61 147.532 52.798 147.028 52.154C146.524 51.51 145.964 51.188 145.348 51.188C144.956 51.188 144.676 51.258 144.508 51.398C144.368 51.51 144.228 51.664 144.088 51.86C143.892 52.168 143.71 52.42 143.542 52.616C143.374 52.812 143.08 52.98 142.66 53.12C141.988 53.344 141.456 53.512 141.064 53.624C140.7 53.708 140.434 53.778 140.266 53.834L139.93 53.918C139.762 53.918 139.524 53.806 139.216 53.582C138.936 53.33 138.796 53.134 138.796 52.994C138.796 52.49 139.09 52.014 139.678 51.566C140.294 51.09 140.98 50.67 141.736 50.306C142.492 49.914 143.22 49.606 143.92 49.382C144.62 49.158 145.054 49.046 145.222 49.046C146.062 49.046 146.748 49.214 147.28 49.55C147.84 49.886 148.274 50.32 148.582 50.852C148.918 51.384 149.156 51.972 149.296 52.616C149.436 53.232 149.506 53.834 149.506 54.422ZM165.917 56.48C166.057 56.62 166.127 56.704 166.127 56.732C166.127 56.788 166.043 56.956 165.875 57.236C165.735 57.516 165.539 57.81 165.287 58.118C165.035 58.426 164.755 58.706 164.447 58.958C164.167 59.182 163.887 59.294 163.607 59.294C163.019 59.294 162.543 59.182 162.179 58.958C161.815 58.706 161.507 58.398 161.255 58.034C161.031 57.67 160.849 57.278 160.709 56.858C160.597 56.41 160.499 55.99 160.415 55.598C160.359 55.402 160.303 55.304 160.247 55.304C160.163 55.304 159.995 55.612 159.743 56.228C159.491 56.816 159.211 57.474 158.903 58.202C158.623 58.902 158.343 59.56 158.063 60.176C157.811 60.764 157.643 61.058 157.559 61.058C157.055 61.058 156.621 60.848 156.257 60.428C155.921 59.98 155.641 59.476 155.417 58.916C155.221 58.328 155.067 57.74 154.955 57.152C154.843 56.536 154.773 56.06 154.745 55.724C154.661 54.968 154.479 53.708 154.199 51.944C153.919 50.18 153.681 48.038 153.485 45.518C153.429 44.986 153.359 44.51 153.275 44.09C153.219 43.642 153.149 43.152 153.065 42.62C152.981 42.088 152.911 41.486 152.855 40.814C152.799 40.142 152.771 39.316 152.771 38.336C152.771 38.28 152.785 38.098 152.813 37.79C152.841 37.482 152.883 37.146 152.939 36.782C152.995 36.418 153.079 36.096 153.191 35.816C153.331 35.536 153.485 35.396 153.653 35.396C153.849 35.396 154.031 35.522 154.199 35.774C154.367 35.998 154.507 36.264 154.619 36.572C154.759 36.88 154.857 37.174 154.913 37.454C154.969 37.734 154.997 37.93 154.997 38.042C154.997 38.462 154.969 38.854 154.913 39.218C154.857 39.582 154.829 39.918 154.829 40.226C154.829 40.646 154.857 41.178 154.913 41.822C154.997 42.466 155.095 43.124 155.207 43.796C155.319 44.468 155.417 45.126 155.501 45.77C155.585 46.386 155.655 46.89 155.711 47.282C155.711 47.31 155.739 47.506 155.795 47.87C155.851 48.234 155.907 48.696 155.963 49.256C156.047 49.788 156.117 50.376 156.173 51.02C156.257 51.636 156.341 52.252 156.425 52.868C156.509 53.456 156.579 53.988 156.635 54.464C156.719 54.912 156.775 55.234 156.803 55.43C156.803 55.514 156.817 55.64 156.845 55.808C156.901 55.948 156.943 56.116 156.971 56.312C157.027 56.508 157.083 56.69 157.139 56.858C157.195 57.026 157.265 57.152 157.349 57.236C157.517 56.9 157.727 56.382 157.979 55.682C158.259 54.982 158.539 54.268 158.819 53.54C159.127 52.812 159.407 52.182 159.659 51.65C159.939 51.09 160.177 50.81 160.373 50.81C160.597 50.81 160.779 50.852 160.919 50.936C161.059 51.02 161.241 51.09 161.465 51.146C161.745 51.258 161.885 51.412 161.885 51.608C161.885 51.776 161.913 51.986 161.969 52.238C162.025 52.574 162.109 53.022 162.221 53.582C162.361 54.114 162.515 54.646 162.683 55.178C162.851 55.682 163.047 56.116 163.271 56.48C163.495 56.844 163.719 57.026 163.943 57.026C164.055 57.026 164.209 56.886 164.405 56.606C164.601 56.298 164.867 56.13 165.203 56.102C165.259 56.102 165.357 56.144 165.497 56.228C165.637 56.284 165.777 56.368 165.917 56.48ZM188.546 55.514C188.546 56.018 188.308 56.648 187.832 57.404C187.384 58.132 186.768 58.846 185.984 59.546C185.2 60.246 184.29 60.848 183.254 61.352C182.218 61.828 181.14 62.066 180.02 62.066C179.516 62.066 178.984 61.982 178.424 61.814C177.864 61.646 177.318 61.408 176.786 61.1C176.254 60.764 175.778 60.372 175.358 59.924C174.938 59.448 174.63 58.916 174.434 58.328C174.266 58.496 174.056 58.776 173.804 59.168C173.58 59.56 173.328 59.966 173.048 60.386C172.768 60.778 172.46 61.128 172.124 61.436C171.788 61.716 171.438 61.856 171.074 61.856C170.71 61.856 170.402 61.674 170.15 61.31C169.926 60.918 169.744 60.498 169.604 60.05C169.464 59.574 169.366 59.126 169.31 58.706C169.254 58.286 169.226 58.048 169.226 57.992C169.226 57.656 169.324 57.026 169.52 56.102C169.716 55.15 170.01 54.17 170.402 53.162C170.794 52.154 171.284 51.258 171.872 50.474C172.488 49.69 173.202 49.298 174.014 49.298C174.322 49.298 174.518 49.438 174.602 49.718C174.714 49.97 174.77 50.222 174.77 50.474V51.734C174.91 51.846 175.05 51.93 175.19 51.986C175.358 52.014 175.498 52.07 175.61 52.154C175.75 52.21 175.848 52.308 175.904 52.448C175.988 52.588 176.03 52.812 176.03 53.12C176.03 53.316 176.016 53.498 175.988 53.666C175.96 53.806 175.946 53.946 175.946 54.086C175.946 54.814 176.002 55.528 176.114 56.228C176.226 56.928 176.45 57.558 176.786 58.118C177.122 58.65 177.584 59.098 178.172 59.462C178.76 59.798 179.544 59.966 180.524 59.966C181.756 59.966 182.792 59.714 183.632 59.21C184.5 58.678 185.214 58.104 185.774 57.488C186.362 56.844 186.824 56.27 187.16 55.766C187.496 55.234 187.776 54.968 188 54.968C188.364 54.968 188.546 55.15 188.546 55.514ZM173.804 53.666C173.804 53.554 173.776 53.456 173.72 53.372C173.664 53.26 173.636 53.162 173.636 53.078C173.636 52.966 173.664 52.868 173.72 52.784C173.776 52.7 173.804 52.588 173.804 52.448C173.804 52.364 173.776 52.308 173.72 52.28C173.664 52.224 173.636 52.168 173.636 52.112C173.384 52.168 173.118 52.406 172.838 52.826C172.586 53.246 172.334 53.736 172.082 54.296C171.858 54.856 171.676 55.43 171.536 56.018C171.396 56.578 171.326 57.04 171.326 57.404C171.326 57.6 171.382 57.922 171.494 58.37C171.606 58.818 171.732 59.112 171.872 59.252C172.348 58.272 172.782 57.32 173.174 56.396C173.594 55.472 173.804 54.562 173.804 53.666ZM198.975 51.44C198.975 51.636 198.891 51.804 198.723 51.944C198.555 52.056 198.359 52.154 198.135 52.238C197.911 52.322 197.687 52.392 197.463 52.448C197.239 52.476 197.057 52.49 196.917 52.49C196.497 52.49 196.217 52.462 196.077 52.406C195.937 52.35 195.825 52.322 195.741 52.322C195.041 52.322 194.481 52.378 194.061 52.49C193.641 52.602 193.305 52.784 193.053 53.036C192.829 53.288 192.675 53.61 192.591 54.002C192.535 54.366 192.507 54.814 192.507 55.346C192.507 56.242 192.535 56.956 192.591 57.488C192.675 58.02 192.745 58.454 192.801 58.79C192.885 59.126 192.955 59.392 193.011 59.588C193.095 59.756 193.137 59.924 193.137 60.092C193.137 60.316 193.011 60.554 192.759 60.806C192.535 61.058 192.325 61.184 192.129 61.184C191.793 61.184 191.485 60.89 191.205 60.302C190.953 59.686 190.729 58.972 190.533 58.16C190.365 57.32 190.225 56.494 190.113 55.682C190.001 54.87 189.945 54.254 189.945 53.834C189.945 53.358 189.987 52.91 190.071 52.49C190.155 52.042 190.267 51.664 190.407 51.356C190.547 51.02 190.701 50.754 190.869 50.558C191.037 50.362 191.205 50.264 191.373 50.264C191.513 50.264 191.625 50.32 191.709 50.432C191.793 50.516 191.863 50.628 191.919 50.768C191.975 50.88 192.031 50.992 192.087 51.104C192.171 51.188 192.269 51.23 192.381 51.23C192.633 51.23 193.039 51.104 193.599 50.852C194.159 50.6 194.845 50.474 195.657 50.474C196.413 50.474 196.973 50.502 197.337 50.558C197.729 50.586 198.107 50.67 198.471 50.81C198.555 50.838 198.653 50.908 198.765 51.02C198.905 51.104 198.975 51.244 198.975 51.44Z" fill="#434343"/>
<defs>
<clipPath id="clip0_118_40543">
<rect width="69.75" height="65.25" fill="white"/>
</clipPath>
</defs>
</svg>
